{
  "accessors": [
    {
      "bufferView": 2,
      "componentType": 5126,
      "count": 3,
      "max": [
        2.367328405380249,
        -17.827884674072266,
        -23.991819381713867
      ],
      "min": [
        2.2208626270294189,
        -17.837776184082031,
        -24.011903762817383
      ],
      "type": "VEC3"
    },
    {
      "bufferView": 2,
      "byteOffset": 36,
      "componentType": 5126,
      "count": 3,
      "max": [
        0.11099834740161896,
        0.9295194149017334,
        0.3516717255115509
      ],
      "min": [
        0.11099834740161896,
        0.9295194149017334,
        0.3516717255115509
      ],
      "type": "VEC3"
    },
    {
      "bufferView": 3,
      "componentType": 5126,
      "count": 3,
      "max": [
        0.039623577147722244,
        0.34943792223930359,
        -0.93612140417098999,
        -1
      ],
      "min": [
        0.039623577147722244,
        0.34943792223930359,
        -0.93612140417098999,
        -1
      ],
      "type": "VEC4"
    },
    {
      "bufferView": 0,
      "componentType": 5125,
      "count": 3,
      "max": [
        2
      ],
      "min": [
        0
      ],
      "type": "SCALAR"
    },
    {
      "bufferView": 2,
      "byteOffset": 72,
      "componentType": 5126,
      "count": 65532,
      "max": [
        4.385490894317627,
        0.75739538669586182,
        27.963169097900391
      ],
      "min": [
        -8.1951875686645508,
        -26.984481811523438,
        -30.043336868286133
      ],
      "type": "VEC3"
    },
    {
      "bufferView": 2,
      "byteOffset": 786456,
      "componentType": 5126,
      "count": 65532,
      "max": [
        -0.10983713716268539,
        0.94255775213241577,
        0.97919249534606934
      ],
      "min": [
        -0.99999749660491943,
        -0.73606413602828979,
        -0.69488310813903809
      ],
      "type": "VEC3"
    },
    {
      "bufferView": 3,
      "byteOffset": 48,
      "componentType": 5126,
      "count": 65532,
      "max": [
        0.97169464826583862,
        0.99998867511749268,
        0.99944525957107544,
        1
      ],
      "min": [
        -0.97365427017211914,
        -0.99601525068283081,
        -0.99972820281982422,
        -1
      ],
      "type": "VEC4"
    },
    {
      "bufferView": 1,
      "componentType": 5126,
      "count": 65532,
      "max": [
        0.44681140780448914,
        0.43404191732406616
      ],
      "min": [
        0.19256912171840668,
        0.0019260605331510305
      ],
      "type": "VEC2"
    },
    {
      "bufferView": 0,
      "byteOffset": 12,
      "componentType": 5125,
      "count": 361380,
      "max": [
        65531
      ],
      "min": [
        0
      ],
      "type": "SCALAR"
    },
    {
      "bufferView": 2,
      "byteOffset": 1572840,
      "componentType": 5126,
      "count": 65532,
      "max": [
        10.29625129699707,
        2.2500991821289062,
        27.930776596069336
      ],
      "min": [
        -8.2060813903808594,
        -12.8048095703125,
        -20.360427856445312
      ],
      "type": "VEC3"
    },
    {
      "bufferView": 2,
      "byteOffset": 2359224,
      "componentType": 5126,
      "count": 65532,
      "max": [
        0.71732997894287109,
        0.99999886751174927,
        0.9758751392364502
      ],
      "min": [
        -0.9999735951423645,
        -0.62329268455505371,
        -0.90941238403320312
      ],
      "type": "VEC3"
    },
    {
      "bufferView": 3,
      "byteOffset": 1048560,
      "componentType": 5126,
      "count": 65532,
      "max": [
        0.99990791082382202,
        0.99999701976776123,
        0.99914783239364624,
        1
      ],
      "min": [
        -0.96451479196548462,
        -0.93130850791931152,
        -0.9999355673789978,
        -1
      ],
      "type": "VEC4"
    },
    {
      "bufferView": 1,
      "byteOffset": 524256,
      "componentType": 5126,
      "count": 65532,
      "max": [
        0.99941915273666382,
        0.83874219655990601
      ],
      "min": [
        0.0035374115686863661,
        0.0023971579503268003
      ],
      "type": "VEC2"
    },
    {
      "bufferView": 0,
      "byteOffset": 1445532,
      "componentType": 5125,
      "count": 338571,
      "max": [
        65531
      ],
      "min": [
        0
      ],
      "type": "SCALAR"
    },
    {
      "bufferView": 2,
      "byteOffset": 3145608,
      "componentType": 5126,
      "count": 65532,
      "max": [
        14.765044212341309,
        2.2487442493438721,
        18.958915710449219
      ],
      "min": [
        -6.0197620391845703,
        -25.558448791503906,
        -25.482275009155273
      ],
      "type": "VEC3"
    },
    {
      "bufferView": 2,
      "byteOffset": 3931992,
      "componentType": 5126,
      "count": 65532,
      "max": [
        0.9999508261680603,
        0.99999529123306274,
        0.97800928354263306
      ],
      "min": [
        -0.84999775886535645,
        -0.36742347478866577,
        -0.69498306512832642
      ],
      "type": "VEC3"
    },
    {
      "bufferView": 3,
      "byteOffset": 2097072,
      "componentType": 5126,
      "count": 65532,
      "max": [
        0.99996978044509888,
        0.97454541921615601,
        0.99249923229217529,
        1
      ],
      "min": [
        -0.99752610921859741,
        -0.89757519960403442,
        -0.99866652488708496,
        -1
      ],
      "type": "VEC4"
    },
    {
      "bufferView": 1,
      "byteOffset": 1048512,
      "componentType": 5126,
      "count": 65532,
      "max": [
        0.95591139793395996,
        0.57927876710891724
      ],
      "min": [
        0.0033365378621965647,
        0.0028908767271786928
      ],
      "type": "VEC2"
    },
    {
      "bufferView": 0,
      "byteOffset": 2799816,
      "componentType": 5125,
      "count": 358383,
      "max": [
        65531
      ],
      "min": [
        0
      ],
      "type": "SCALAR"
    },
    {
      "bufferView": 2,
      "byteOffset": 4718376,
      "componentType": 5126,
      "count": 65532,
      "max": [
        13.80103588104248,
        0.062010139226913452,
        2.528508186340332
      ],
      "min": [
        -4.98492431640625,
        -25.731601715087891,
        -29.244955062866211
      ],
      "type": "VEC3"
    },
    {
      "bufferView": 2,
      "byteOffset": 5504760,
      "componentType": 5126,
      "count": 65532,
      "max": [
        0.99999922513961792,
        0.99966621398925781,
        0.94752728939056396
      ],
      "min": [
        -0.98894345760345459,
        -0.85630631446838379,
        -0.99949944019317627
      ],
      "type": "VEC3"
    },
    {
      "bufferView": 3,
      "byteOffset": 3145584,
      "componentType": 5126,
      "count": 65532,
      "max": [
        0.99831873178482056,
        0.9496610164642334,
        0.99592828750610352,
        1
      ],
      "min": [
        -0.98586279153823853,
        -0.99997586011886597,
        -0.90942078828811646,
        -1
      ],
      "type": "VEC4"
    },
    {
      "bufferView": 1,
      "byteOffset": 1572768,
      "componentType": 5126,
      "count": 65532,
      "max": [
        0.99946683645248413,
        0.84744465351104736
      ],
      "min": [
        0.029240988194942474,
        0.14454939961433411
      ],
      "type": "VEC2"
    },
    {
      "bufferView": 0,
      "byteOffset": 4233348,
      "componentType": 5125,
      "count": 367284,
      "max": [
        65531
      ],
      "min": [
        0
      ],
      "type": "SCALAR"
    },
    {
      "bufferView": 2,
      "byteOffset": 6291144,
      "componentType": 5126,
      "count": 65532,
      "max": [
        14.990139961242676,
        1.1759276390075684,
        15.743383407592773
      ],
      "min": [
        -4.6816434860229492,
        -26.421295166015625,
        -25.501777648925781
      ],
      "type": "VEC3"
    },
    {
      "bufferView": 2,
      "byteOffset": 7077528,
      "componentType": 5126,
      "count": 65532,
      "max": [
        0.9999966025352478,
        0.94078367948532104,
        0.99982970952987671
      ],
      "min": [
        -0.99991136789321899,
        -0.99999713897705078,
        -0.92826515436172485
      ],
      "type": "VEC3"
    },
    {
      "bufferView": 3,
      "byteOffset": 4194096,
      "componentType": 5126,
      "count": 65532,
      "max": [
        0.99833875894546509,
        0.99747180938720703,
        0.99912065267562866,
        1
      ],
      "min": [
        -0.99998688697814941,
        -0.99992197751998901,
        -0.99996966123580933,
        -1
      ],
      "type": "VEC4"
    },
    {
      "bufferView": 1,
      "byteOffset": 2097024,
      "componentType": 5126,
      "count": 65532,
      "max": [
        0.99904549121856689,
        0.83890771865844727
      ],
      "min": [
        0.00044582950067706406,
        0.0026737588923424482
      ],
      "type": "VEC2"
    },
    {
      "bufferView": 0,
      "byteOffset": 5702484,
      "componentType": 5125,
      "count": 360720,
      "max": [
        65531
      ],
      "min": [
        0
      ],
      "type": "SCALAR"
    },
    {
      "bufferView": 2,
      "byteOffset": 7863912,
      "componentType": 5126,
      "count": 65532,
      "max": [
        14.663327217102051,
        0.54006510972976685,
        23.609943389892578
      ],
      "min": [
        -8.2060813903808594,
        -17.168834686279297,
        -12.338689804077148
      ],
      "type": "VEC3"
    },
    {
      "bufferView": 2,
      "byteOffset": 8650296,
      "componentType": 5126,
      "count": 65532,
      "max": [
        0.90287601947784424,
        0.99436277151107788,
        0.89446699619293213
      ],
      "min": [
        -0.99999463558197021,
        -0.9999924898147583,
        -0.93652927875518799
      ],
      "type": "VEC3"
    },
    {
      "bufferView": 3,
      "byteOffset": 5242608,
      "componentType": 5126,
      "count": 65532,
      "max": [
        0.99945944547653198,
        0.99975043535232544,
        0.99017000198364258,
        1
      ],
      "min": [
        -0.99752682447433472,
        -0.97876191139221191,
        -0.99944138526916504,
        -1
      ],
      "type": "VEC4"
    },
    {
      "bufferView": 1,
      "byteOffset": 2621280,
      "componentType": 5126,
      "count": 65532,
      "max": [
        0.99709993600845337,
        0.83942067623138428
      ],
      "min": [
        0.49802207946777344,
        0.0040634479373693466
      ],
      "type": "VEC2"
    },
    {
      "bufferView": 0,
      "byteOffset": 7145364,
      "componentType": 5125,
      "count": 360507,
      "max": [
        65531
      ],
      "min": [
        0
      ],
      "type": "SCALAR"
    },
    {
      "bufferView": 2,
      "byteOffset": 9436680,
      "componentType": 5126,
      "count": 65532,
      "max": [
        14.528888702392578,
        -1.029296875,
        29.474601745605469
      ],
      "min": [
        -7.9140458106994629,
        -18.677688598632812,
        -1.1544733047485352
      ],
      "type": "VEC3"
    },
    {
      "bufferView": 2,
      "byteOffset": 10223064,
      "componentType": 5126,
      "count": 65532,
      "max": [
        0.9998936653137207,
        0.99385333061218262,
        0.99999386072158813
      ],
      "min": [
        -0.99964308738708496,
        -0.99998396635055542,
        -0.99991130828857422
      ],
      "type": "VEC3"
    },
    {
      "bufferView": 3,
      "byteOffset": 6291120,
      "componentType": 5126,
      "count": 65532,
      "max": [
        0.99902373552322388,
        0.98857498168945312,
        0.99998432397842407,
        1
      ],
      "min": [
        -0.98526871204376221,
        -0.99855858087539673,
        -0.99758893251419067,
        -1
      ],
      "type": "VEC4"
    },
    {
      "bufferView": 1,
      "byteOffset": 3145536,
      "componentType": 5126,
      "count": 65532,
      "max": [
        0.99863195419311523,
        0.84318166971206665
      ],
      "min": [
        0.00038626763853244483,
        0.48067215085029602
      ],
      "type": "VEC2"
    },
    {
      "bufferView": 0,
      "byteOffset": 8587392,
      "componentType": 5125,
      "count": 364578,
      "max": [
        65531
      ],
      "min": [
        0
      ],
      "type": "SCALAR"
    },
    {
      "bufferView": 2,
      "byteOffset": 11009448,
      "componentType": 5126,
      "count": 65532,
      "max": [
        14.123064041137695,
        1.8434836864471436,
        29.202426910400391
      ],
      "min": [
        -5.9194822311401367,
        -25.048620223999023,
        -30.190410614013672
      ],
      "type": "VEC3"
    },
    {
      "bufferView": 2,
      "byteOffset": 11795832,
      "componentType": 5126,
      "count": 65532,
      "max": [
        0.99803102016448975,
        0.99998617172241211,
        0.99087250232696533
      ],
      "min": [
        -0.99983048439025879,
        -0.99964058399200439,
        -0.99872630834579468
      ],
      "type": "VEC3"
    },
    {
      "bufferView": 3,
      "byteOffset": 7339632,
      "componentType": 5126,
      "count": 65532,
      "max": [
        0.99130576848983765,
        0.96343058347702026,
        0.99999934434890747,
        1
      ],
      "min": [
        -0.99883031845092773,
        -0.99718856811523438,
        -0.9985392689704895,
        -1
      ],
      "type": "VEC4"
    },
    {
      "bufferView": 1,
      "byteOffset": 3669792,
      "componentType": 5126,
      "count": 65532,
      "max": [
        0.99490451812744141,
        0.83822423219680786
      ],
      "min": [
        0.0003043841861654073,
        0.011195705272257328
      ],
      "type": "VEC2"
    },
    {
      "bufferView": 0,
      "byteOffset": 10045704,
      "componentType": 5125,
      "count": 360993,
      "max": [
        65531
      ],
      "min": [
        0
      ],
      "type": "SCALAR"
    },
    {
      "bufferView": 2,
      "byteOffset": 12582216,
      "componentType": 5126,
      "count": 65532,
      "max": [
        10.421377182006836,
        -4.7337074279785156,
        -8.273798942565918
      ],
      "min": [
        -6.1114349365234375,
        -27.968671798706055,
        -31.64129638671875
      ],
      "type": "VEC3"
    },
    {
      "bufferView": 2,
      "byteOffset": 13368600,
      "componentType": 5126,
      "count": 65532,
      "max": [
        0.9993709921836853,
        0.98370552062988281,
        0.96083176136016846
      ],
      "min": [
        -0.99860197305679321,
        -0.99971187114715576,
        -0.99996238946914673
      ],
      "type": "VEC3"
    },
    {
      "bufferView": 3,
      "byteOffset": 8388144,
      "componentType": 5126,
      "count": 65532,
      "max": [
        1,
        0.93286436796188354,
        0.99649733304977417,
        1
      ],
      "min": [
        -0.99962341785430908,
        -0.99954479932785034,
        -0.93229925632476807,
        -1
      ],
      "type": "VEC4"
    },
    {
      "bufferView": 1,
      "byteOffset": 4194048,
      "componentType": 5126,
      "count": 65532,
      "max": [
        0.8668399453163147,
        0.75257992744445801
      ],
      "min": [
        0.19120003283023834,
        0.0019320222781971097
      ],
      "type": "VEC2"
    },
    {
      "bufferView": 0,
      "byteOffset": 11489676,
      "componentType": 5125,
      "count": 356643,
      "max": [
        65531
      ],
      "min": [
        0
      ],
      "type": "SCALAR"
    },
    {
      "bufferView": 2,
      "byteOffset": 14154984,
      "componentType": 5126,
      "count": 44235,
      "max": [
        10.676821708679199,
        -6.9402132034301758,
        18.000268936157227
      ],
      "min": [
        -6.2669930458068848,
        -28.07451057434082,
        -31.685844421386719
      ],
      "type": "VEC3"
    },
    {
      "bufferView": 2,
      "byteOffset": 14685804,
      "componentType": 5126,
      "count": 44235,
      "max": [
        0.99997550249099731,
        0.99991178512573242,
        0.99960422515869141
      ],
      "min": [
        -0.97492599487304688,
        -0.99994099140167236,
        -0.99999606609344482
      ],
      "type": "VEC3"
    },
    {
      "bufferView": 3,
      "byteOffset": 9436656,
      "componentType": 5126,
      "count": 44235,
      "max": [
        0.99990707635879517,
        0.99999475479125977,
        0.99997842311859131,
        1
      ],
      "min": [
        -0.99997603893280029,
        -0.99453634023666382,
        -0.99997955560684204,
        -1
      ],
      "type": "VEC4"
    },
    {
      "bufferView": 1,
      "byteOffset": 4718304,
      "componentType": 5126,
      "count": 44235,
      "max": [
        0.99896347522735596,
        0.85576891899108887
      ],
      "min": [
        0.00029840719071216881,
        0.29618179798126221
      ],
      "type": "VEC2"
    },
    {
      "bufferView": 0,
      "byteOffset": 12916248,
      "componentType": 5125,
      "count": 237954,
      "max": [
        44234
      ],
      "min": [
        0
      ],
      "type": "SCALAR"
    }
  ],
  "asset": {
    "extras": {
      "author": "LIRA \"ARTEFACT\" (https://sketchfab.com/lira_artefact)",
      "license": "CC-BY-NC-ND-4.0 (http://creativecommons.org/licenses/by-nc-nd/4.0/)",
      "source": "https://sketchfab.com/models/bb3a0f1939ea49a8b0a6c6d9f3ad0f40",
      "title": "Stone sculpture “The Supplicant” // «Молящий»"
    },
    "generator": "Sketchfab-3.18.2",
    "version": "2.0"
  },
  "bufferViews": [
    {
      "buffer": 0,
      "byteLength": 13868064,
      "byteOffset": 0,
      "name": "floatBufferViews",
      "target": 34963
    },
    {
      "buffer": 0,
      "byteLength": 5072184,
      "byteOffset": 13868064,
      "byteStride": 8,
      "name": "floatBufferViews",
      "target": 34962
    },
    {
      "buffer": 0,
      "byteLength": 15216624,
      "byteOffset": 18940248,
      "byteStride": 12,
      "name": "floatBufferViews",
      "target": 34962
    },
    {
      "buffer": 0,
      "byteLength": 10144416,
      "byteOffset": 34156872,
      "byteStride": 16,
      "name": "floatBufferViews",
      "target": 34962
    }
  ],
  "buffers": [
    {
      "byteLength": 44301288,
      "uri": "scene.bin"
    }
  ],
  "images": [
    {
      "uri": "material_baseColor.jpg"
    }
  ],
  "materials": [
    {
      "doubleSided": true,
      "emissiveFactor": [
        0,
        0,
        0
      ],
      "name": "material_0",
      "pbrMetallicRoughness": {
        "baseColorFactor": [
          0.5,
          0.5,
          0.5,
          1
        ],
        "metallicFactor": 0,
        "roughnessFactor": 0.59999999999999998
      }
    },
    {
      "doubleSided": true,
      "emissiveFactor": [
        0,
        0,
        0
      ],
      "name": "material",
      "pbrMetallicRoughness": {
        "baseColorFactor": [
          1,
          1,
          1,
          1
        ],
        "baseColorTexture": {
          "index": 0,
          "texCoord": 0
        },
        "metallicFactor": 0,
        "roughnessFactor": 0.59999999999999998
      }
    }
  ],
  "meshes": [
    {
      "primitives": [
        {
          "attributes": {
            "NORMAL": 1,
            "POSITION": 0,
            "TANGENT": 2
          },
          "indices": 3,
          "material": 0,
          "mode": 4
        }
      ]
    },
    {
      "primitives": [
        {
          "attributes": {
            "NORMAL": 5,
            "POSITION": 4,
            "TANGENT": 6,
            "TEXCOORD_0": 7
          },
          "indices": 8,
          "material": 1,
          "mode": 4
        }
      ]
    },
    {
      "primitives": [
        {
          "attributes": {
            "NORMAL": 10,
            "POSITION": 9,
            "TANGENT": 11,
            "TEXCOORD_0": 12
          },
          "indices": 13,
          "material": 1,
          "mode": 4
        }
      ]
    },
    {
      "primitives": [
        {
          "attributes": {
            "NORMAL": 15,
            "POSITION": 14,
            "TANGENT": 16,
            "TEXCOORD_0": 17
          },
          "indices": 18,
          "material": 1,
          "mode": 4
        }
      ]
    },
    {
      "primitives": [
        {
          "attributes": {
            "NORMAL": 20,
            "POSITION": 19,
            "TANGENT": 21,
            "TEXCOORD_0": 22
          },
          "indices": 23,
          "material": 1,
          "mode": 4
        }
      ]
    },
    {
      "primitives": [
        {
          "attributes": {
            "NORMAL": 25,
            "POSITION": 24,
            "TANGENT": 26,
            "TEXCOORD_0": 27
          },
          "indices": 28,
          "material": 1,
          "mode": 4
        }
      ]
    },
    {
      "primitives": [
        {
          "attributes": {
            "NORMAL": 30,
            "POSITION": 29,
            "TANGENT": 31,
            "TEXCOORD_0": 32
          },
          "indices": 33,
          "material": 1,
          "mode": 4
        }
      ]
    },
    {
      "primitives": [
        {
          "attributes": {
            "NORMAL": 35,
            "POSITION": 34,
            "TANGENT": 36,
            "TEXCOORD_0": 37
          },
          "indices": 38,
          "material": 1,
          "mode": 4
        }
      ]
    },
    {
      "primitives": [
        {
          "attributes": {
            "NORMAL": 40,
            "POSITION": 39,
            "TANGENT": 41,
            "TEXCOORD_0": 42
          },
          "indices": 43,
          "material": 1,
          "mode": 4
        }
      ]
    },
    {
      "primitives": [
        {
          "attributes": {
            "NORMAL": 45,
            "POSITION": 44,
            "TANGENT": 46,
            "TEXCOORD_0": 47
          },
          "indices": 48,
          "material": 1,
          "mode": 4
        }
      ]
    },
    {
      "primitives": [
        {
          "attributes": {
            "NORMAL": 50,
            "POSITION": 49,
            "TANGENT": 51,
            "TEXCOORD_0": 52
          },
          "indices": 53,
          "material": 1,
          "mode": 4
        }
      ]
    }
  ],
  "nodes": [
    {
      "children": [
        1
      ],
      "name": "RootNode (gltf orientation matrix)",
      "rotation": [
        -0.70710678118654746,
        -0,
        -0,
        0.70710678118654757
      ]
    },
    {
      "children": [
        2
      ],
      "name": "RootNode (model correction matrix)"
    },
    {
      "children": [
        3,
        4,
        5,
        6,
        7,
        8,
        9,
        10,
        11,
        12,
        13
      ],
      "name": "Molyas.obj.cleaner.gles"
    },
    {
      "mesh": 0,
      "name": ""
    },
    {
      "mesh": 1,
      "name": ""
    },
    {
      "mesh": 2,
      "name": ""
    },
    {
      "mesh": 3,
      "name": ""
    },
    {
      "mesh": 4,
      "name": ""
    },
    {
      "mesh": 5,
      "name": ""
    },
    {
      "mesh": 6,
      "name": ""
    },
    {
      "mesh": 7,
      "name": ""
    },
    {
      "mesh": 8,
      "name": ""
    },
    {
      "mesh": 9,
      "name": ""
    },
    {
      "mesh": 10,
      "name": ""
    }
  ],
  "samplers": [
    {
      "magFilter": 9729,
      "minFilter": 9987,
      "wrapS": 10497,
      "wrapT": 10497
    }
  ],
  "scene": 0,
  "scenes": [
    {
      "name": "OSG_Scene",
      "nodes": [
        0
      ]
    }
  ],
  "textures": [
    {
      "sampler": 0,
      "source": 0
    }
  ]
}

